# AST/ASF file generated using VICON BodyLanguage
# -----------------------------------------------
:version 1.10
:name VICON
:units
  mass 1.0
  length 0.45
  angle deg
:documentation
   .ast/.asf automatically generated from VICON data using
   VICON BodyBuilder and BodyLanguage model FoxedUp or BRILLIANT.MOD
:root
   order TX TY TZ RX RY RZ
   axis XYZ
   position 0 0 0  
   orientation 0 0 0 
:bonedata
  begin
     id 1 
     name lhipjoint
     direction 0.711131 -0.61297 0.344326 
     length 2.29162 
     axis 0 0 0  XYZ
  end
  begin
     id 2 
     name lfemur
     direction 0.34202 -0.939693 0  
     length 6.71424  
     axis 0 0 20  XYZ
    dof rx ry rz
    limits (-160.0 20.0)
           (-70.0 70.0)
           (-60.0 70.0)
  end
  begin
     id 3 
     name ltibia
     direction 0.34202 -0.939693 0   
     length 6.7087   
     axis 0 0 20   XYZ
    dof rx
    limits (-10.0 170.0)
  end
  begin
     id 4 
     name lfoot
     direction 0.0230374 -0.0632947 0.997729   
     length 1.56743   
     axis -90 7.62852e-016 20   XYZ
    dof rx rz
    limits (-45.0 90.0)
           (-70.0 20.0)
  end
  begin
     id 5 
     name ltoes
     direction 1.53585e-011 -4.21885e-011 1   
     length 0.802914   
     axis -90 7.62852e-016 20   XYZ
    dof rx
    limits (-90.0 20.0)
  end
  begin
     id 6 
     name rhipjoint
     direction -0.733192 -0.592884 0.333043   
     length 2.36925  
     axis 0 0 0  XYZ 
  end
  begin
     id 7 
     name rfemur
     direction -0.34202 -0.939693 0   
     length 6.67027   
     axis 0 0 -20   XYZ
    dof rx ry rz
    limits (-160.0 20.0)
           (-70.0 70.0)
           (-70.0 60.0)
  end
  begin
     id 8 
     name rtibia
     direction -0.34202 -0.939693 0   
     length 6.6862   
     axis 0 0 -20   XYZ
    dof rx
    limits (-10.0 170.0)
 end
 begin
     id 9 
     name rfoot
     direction -0.0949739 -0.260939 0.960672   
     length 1.67698  
     axis -90 -7.62852e-016 -20   XYZ
    dof rx rz
    limits (-45.0 90.0)
           (-20.0 70.0)
  end
  begin
     id 10 
     name rtoes
     direction -1.5353e-011 -4.21868e-011 1   
     length 0.846298   
     axis -90 -7.62852e-016 -20   XYZ
    dof rx
    limits (-90.0 20.0)
  end
  begin
     id 11 
     name lowerback
     direction -0.0206828 0.999785 -0.00109866   
     length 2.04382   
     axis 0 0 0   XYZ
    dof rx ry rz
    limits (-20.0 45.0)
           (-30.0 30.0)
           (-30.0 30.0)
  end
  begin
     id 12 
     name upperback
     direction -0.0105003 0.999727 -0.0208904   
     length 2.04538   
     axis 0 0 0   XYZ
    dof rx ry rz
    limits (-20.0 45.0)
           (-30.0 30.0)
           (-30.0 30.0)
  end
  begin
     id 13 
     name thorax
     direction -0.000416255 0.999808 -0.0196023   
     length 2.0399   
     axis 0 0 0   XYZ
    dof rx ry rz
    limits (-20.0 45.0)
           (-30.0 30.0)
           (-30.0 30.0)
  end
  begin
     id 14 
     name lowerneck
     direction 0.0627861 0.989205 0.13241   
     length 1.46207   
     axis 0 0 0   XYZ
    dof rx ry rz
    limits (-20.0 45.0)
           (-30.0 30.0)
           (-30.0 30.0)
  end
  begin
     id 15 
     name upperneck
     direction 0.00627179 0.994526 0.104303   
     length 1.41419   
     axis 0 0 0   XYZ
    dof rx ry rz
    limits (-20.0 45.0)
           (-30.0 30.0)
           (-30.0 30.0)
  end
  begin
     id 16
     name head
     direction -0.00443838 0.999688 0.0245968  
     length 1.50718  
     axis 0 0 0   XYZ
    dof rx ry rz
    limits (-20.0 45.0)
           (-30.0 30.0)
           (-30.0 30.0)
  end
  begin
     id 17 
     name lclavicle
     direction 0.758742 0.650995 -0.0227258  
     length 2.86888  
     axis 0 0 0   XYZ
    dof ry rz
    limits (-20.0 10.0)
           (0.0 20.0)
  end
  begin
     id 18 
     name lhumerus
     direction 1 -4.48962e-011 1.06664e-027   
     length 4.65776   
     axis -180 -30 -90   XYZ
    dof rx ry rz
    limits (-60.0 90.0)
           (-90.0 90.0)
           (-90.0 90.0)
  end
  begin
     id 19
     name lradius
     direction 1 -4.48968e-011 1.40404e-026   
     length 3.55539   
     axis -180 -30 -90   XYZ
    dof rx
    limits (-10.0 170.0)
  end
  begin
     id 20
     name lwrist
     direction 1 -4.48976e-011 3.32647e-026   
     length 1.77769   
     axis -2.20186e-014 90 90   XYZ
    dof ry
    limits (-180.0 0.0)
 end
  begin
     id 21 
     name lhand
     direction 1 -4.48982e-011 6.65293e-026   
     length 0.707264   
     axis -4.24514e-014 90 90   XYZ
    dof rx rz
    limits (-90.0 90.0)
           (-45.0 45.0)
  end
  begin
     id 22 
     name lfingers
     direction 1 -4.48966e-011 1.33059e-025   
     length 0.570215   
     axis -8.49028e-014 90 90   XYZ
    dof rx
    limits (0.0 90.0)
  end
  begin
     id 23
     name lthumb
     direction 0.707107 -6.3493e-011 0.707107   
     length 0.818718   
     axis -90 45 2.85299e-015   XYZ
    dof rx rz
    limits (-45.0 45.0)
           (-45.0 45.0)
  end
  begin
     id 24 
     name rclavicle
     direction -0.870343 0.482028 -0.100759   
     length 3.2251  
     axis 0 0 0   XYZ 
    dof ry rz
    limits (-10.0 20.0)
           (-20.0 0.0)
  end
  begin
     id 25 
     name rhumerus
     direction -1 -4.48974e-011 -9.45849e-028  
     length 4.71925   
     axis -180 30 90   XYZ
    dof rx ry rz
    limits (-90.0 60.0)
           (-90.0 90.0)
           (-90.0 90.0)
  end
  begin
     id 26 
     name rradius
     direction -1 -4.48965e-011 1.17607e-026   
     length 3.5699   
     axis -180 30 90   XYZ
    dof rx
    limits (-10.0 170.0)
  end
  begin
     id 27 
     name rwrist
     direction -1 -4.48968e-011 3.32647e-026   
     length 1.78495   
     axis -2.20186e-014 -90 -90   XYZ
    dof ry
    limits (-180.0 0.0)
  end
  begin
     id 28
     name rhand
     direction -1 -4.48995e-011 6.65293e-026   
     length 0.507757   
     axis -4.24514e-014 -90 -90   XYZ
    dof rx rz
    limits (-90.0 90.0)
           (-45.0 45.0)
  end
  begin
     id 29
     name rfingers
     direction -1 -4.48864e-011 1.33059e-025   
     length 0.409367   
     axis -8.49028e-014 -90 -90   XYZ
    dof rx
    limits (0.0 90.0)
  end
  begin
     id 30
     name rthumb
     direction -0.707107 -6.3494e-011 0.707107   
     length 0.587771   
     axis -90 -45 -2.85299e-015   XYZ
    dof rx rz
    limits (-45.0 45.0)
           (-45.0 45.0)
  end
:hierarchy
  begin
    root lhipjoint rhipjoint lowerback
    lhipjoint lfemur
    lfemur ltibia
    ltibia lfoot
    lfoot ltoes
    rhipjoint rfemur
    rfemur rtibia
    rtibia rfoot
    rfoot rtoes
    lowerback upperback
    upperback thorax
    thorax lowerneck lclavicle rclavicle
    lowerneck upperneck
    upperneck head
    lclavicle lhumerus
    lhumerus lradius
    lradius lwrist
    lwrist lhand lthumb
    lhand lfingers
    rclavicle rhumerus
    rhumerus rradius
    rradius rwrist
    rwrist rhand rthumb
    rhand rfingers
  end

#!OML:ASF E:\Steps\Project 1\Capture day 1\Session 2\Subject.ASF
:FULLY-SPECIFIED
:DEGREES
59
root 6.14947 16.3585 31.7141 -153.087 3.55215 178.57
lowerback -26.0474 -1.76774 -6.51593
upperback -0.249078 0.0504369 -0.267239
thorax 14.4042 -0.283492 3.50382
lowerneck -3.42726 -2.38456 -1.30322
upperneck 17.4856 -2.80918 3.70556
head 5.9136 -0.8176 1.25215
rclavicle 1.49089e-015 -3.97569e-016
rhumerus -40.84 -20.1076 -73.5191
rradius 34.8624
rwrist -2.32244
rhand -9.74699 -48.2451
rfingers 7.12502
rthumb 16.2273 -77.586
lclavicle 1.49089e-015 -3.97569e-016
lhumerus -33.1337 7.722 78.3123
lradius 24.3804
lwrist -4.3078
lhand -18.3495 -17.3465
lfingers 7.12502
lthumb 7.933 12.4846
rfemur -27.3348 4.99715 18.7947
rtibia 8.02592
rfoot -16.9921 -7.27688
rtoes -27.9591
lfemur -27.3235 -8.3118 -20.7732
ltibia 10.153
lfoot -8.63025 2.39566
ltoes -40.1019
60
root 6.15728 16.3558 31.7085 -153.031 3.4482 178.584
lowerback -26.1251 -1.7775 -6.55542
upperback -0.267867 0.0525433 -0.226535
thorax 14.4251 -0.2863 3.57557
lowerneck -3.26886 -2.45191 -1.26146
upperneck 16.9957 -2.92593 3.6416
head 5.73411 -0.901451 1.216
rclavicle 5.06901e-015 -1.11319e-014
rhumerus -40.7254 -19.9937 -73.5545
rradius 34.6371
rwrist -2.20224
rhand -10.1484 -49.1684
rfingers 7.12502
rthumb 15.8407 -78.5404
lclavicle 5.06901e-015 -1.11319e-014
lhumerus -33.12 8.13837 78.0697
lradius 24.4643
lwrist -4.06013
lhand -17.4886 -17.4977
lfingers 7.12502
lthumb 8.76387 12.3004
rfemur -27.3299 4.96519 18.8664
rtibia 8.01166
rfoot -16.9734 -7.27394
rtoes -27.7103
lfemur -27.3713 -8.18763 -20.7409
ltibia 10.1493
lfoot -8.60538 2.24008
ltoes -40.1923
61
root 6.16493 16.3547 31.7052 -152.896 3.39118 178.595
lowerback -26.2785 -1.80693 -6.6338
upperback -0.303246 0.0451506 -0.157401
thorax 14.4697 -0.296723 3.70017
lowerneck -3.52319 -2.28844 -1.36284
upperneck 17.2742 -2.67621 3.57929
head 5.85931 -0.779416 1.22781
rclavicle 5.86415e-015 -4.96962e-015
rhumerus -40.6697 -19.8077 -73.5238
rradius 34.4672
rwrist -2.1947
rhand -10.1213 -49.3109
rfingers 7.12502
rthumb 15.8668 -78.6808
lclavicle 5.86415e-015 -4.96962e-015
lhumerus -33.1152 8.38482 77.9864
lradius 24.5239
lwrist -3.83505
lhand -17.0718 -17.6308
lfingers 7.12502
lthumb 9.16611 12.15
rfemur -27.4787 4.88345 18.9166
rtibia 8.05195
rfoot -16.9701 -7.17212
rtoes -27.4039
lfemur -27.5347 -8.06277 -20.6866
ltibia 10.188
lfoot -8.61474 2.10938
ltoes -40.1836
62
root 6.17296 16.3542 31.7014 -152.873 3.32553 178.575
lowerback -26.3573 -1.80692 -6.70088
upperback -0.295186 0.0708396 -0.138904
thorax 14.5208 -0.292635 3.77092
lowerneck -2.87492 -2.42963 -1.27672
upperneck 16.2665 -2.91967 3.60957
head 5.43838 -0.934886 1.20876
rclavicle 1.27222e-014 -4.77083e-015
rhumerus -40.7078 -19.7528 -73.4961
rradius 34.4374
rwrist -2.28905
rhand -9.96419 -49.3699
rfingers 7.12502
rthumb 16.0181 -78.7277
lclavicle 1.27222e-014 -4.77083e-015
lhumerus -33.0911 8.3094 77.9721
lradius 24.5847
lwrist -3.68414
lhand -17.4382 -17.046
lfingers 7.12502
lthumb 8.81249 12.75
rfemur -27.4905 4.7064 18.9592
rtibia 8.03223
rfoot -16.95 -7.06839
rtoes -27.7366
lfemur -27.5635 -8.02928 -20.6447
ltibia 10.2088
lfoot -8.6625 2.03547
ltoes -40.4048
63
root 6.18169 16.3548 31.6971 -152.965 3.25845 178.581
lowerback -26.3264 -1.75712 -6.68859
upperback -0.265794 0.129694 -0.155033
thorax 14.5318 -0.267423 3.76688
lowerneck -2.64974 -2.35553 -1.37898
upperneck 15.8782 -2.82695 3.62572
head 5.27847 -0.911624 1.23623
rclavicle -3.18055e-015 1.03368e-014
rhumerus -40.7762 -19.9789 -73.4071
rradius 34.3423
rwrist -2.1538
rhand -9.87876 -49.4661
rfingers 7.12502
rthumb 16.1004 -78.8172
lclavicle -3.18055e-015 1.03368e-014
lhumerus -33.0779 8.08234 77.9393
lradius 24.6912
lwrist -3.53517
lhand -18.028 -15.7215
lfingers 7.12502
lthumb 8.24333 14.0976
rfemur -27.3482 4.53053 19.0615
rtibia 7.98145
rfoot -16.8654 -6.98585
rtoes -28.166
lfemur -27.4445 -7.99942 -20.5918
ltibia 10.1867
lfoot -8.67246 1.93019
ltoes -40.2735
64
root 6.18919 16.3568 31.693 -153.015 3.11987 178.559
lowerback -26.2709 -1.75365 -6.72902
upperback -0.269806 0.135023 -0.118137
thorax 14.4954 -0.268992 3.83465
lowerneck -2.72409 -2.41916 -1.47848
upperneck 15.9068 -2.91213 3.65028
head 5.30416 -0.957157 1.25504
rclavicle -8.54774e-015 1.72943e-014
rhumerus -40.8735 -20.3333 -73.1525
rradius 34.1903
rwrist -1.84299
rhand -9.74148 -49.058
rfingers 7.12502
rthumb 16.2326 -78.3984
lclavicle -8.54774e-015 1.72943e-014
lhumerus -33.0923 7.96923 77.9804
lradius 24.7922
lwrist -3.54612
lhand -18.277 -14.9261
lfingers 7.12502
lthumb 8.00301 14.9024
rfemur -27.2194 4.46057 19.1036
rtibia 7.90001
rfoot -16.8391 -7.03724
rtoes -27.9025
lfemur -27.3946 -7.96048 -20.5867
ltibia 10.2079
lfoot -8.58214 1.78046
ltoes -40.1744
